<?xml version="1.0" encoding="UTF-8"?>
<svg width="56px" height="56px" viewBox="0 0 56 56" version="1.1" xmlns="http://www.w3.org/2000/svg" xmlns:xlink="http://www.w3.org/1999/xlink">
    <!-- Generator: Sketch 61.2 (89653) - https://sketch.com -->
    <title>icone-documentacao</title>
    <desc>Created with Sketch.</desc>
    <g id="Page-1" stroke="none" stroke-width="1" fill="none" fill-rule="evenodd">
        <g id="icone-documentacao" fill-rule="nonzero">
            <path d="M31.6129032,35.2258065 C31.6129032,37.2219003 29.9960938,38.8387097 28,38.8387097 C27.6837828,38.8387097 27.3856477,38.8025454 27.0967742,38.7213962 L26.9252142,38.7575605 C26.54593,36.5718246 25.4980469,34.530305 23.8993196,32.9315777 L22.5806452,31.6129032 L44.2580645,31.6129032 L44.2580645,5.41935484 L50.5806452,5.41935484 L50.5806452,35.2258065 L31.6129032,35.2258065 Z" id="Path" fill="#B4DD7F"></path>
            <polygon id="Path" fill="#B4DD7F" points="17.1612903 31.6129032 17.1612903 35.2258065 5.41935484 35.2258065 5.41935484 5.41935484 11.7419355 5.41935484 11.7419355 31.6129032"></polygon>
            <g id="Group" transform="translate(11.741935, 0.903226)" fill="#E6E9ED">
                <path d="M16.2580645,17.1612903 L16.2580645,30.7096774 L10.8387097,30.7096774 L10.8387097,25.2903226 C10.8387097,24.0439769 10.3328503,22.9149446 9.52003523,22.092868 C8.69795861,21.280053 7.56892635,20.7741935 6.32258065,20.7741935 C5.82598281,20.7741935 5.41935484,21.1808215 5.41935484,21.6774194 L5.41935484,30.7096774 L0,30.7096774 L0,17.1612903 L16.2580645,17.1612903 Z" id="Path"></path>
                <path d="M16.2580645,16.2580645 L16.2580645,7.22580645 C16.2580645,3.23361895 19.4916835,0 23.483871,0 L32.516129,0 L32.516129,30.7096774 L16.2580645,30.7096774 L16.2580645,16.2580645 Z" id="Path"></path>
                <path d="M9.03225806,0 C13.0244456,0 16.2580645,3.23361895 16.2580645,7.22580645 L16.2580645,17.1612903 L0,17.1612903 L0,0 L9.03225806,0 Z" id="Path"></path>
            </g>
            <polygon id="Path" fill="#FCD770" points="21.6774194 47.8709677 21.6774194 47.907132 21.6774194 55.0967742 35.2258065 55.0967742 35.2258065 47.8709677"></polygon>
            <path d="M26.9252142,38.7575605 L27.0967742,38.7213962 C27.3856477,38.8025454 27.6837828,38.8387097 28,38.8387097 C29.9960938,38.8387097 31.6129032,37.2219003 31.6129032,35.2258065 L38.8387097,35.2258065 L38.8387097,38.0708796 C38.8387097,38.576739 38.7302167,39.0733367 38.531754,39.5430317 L35.5327621,46.2634199 C35.3342995,46.7331149 35.2258065,47.2297126 35.2258065,47.735572 L35.2258065,47.8709677 L21.6774194,47.8709677 C21.6685988,47.265877 21.51468,46.6788684 21.2258065,46.1456653 L17.6129032,39.6607863 C17.3147681,39.1187626 17.1612903,38.5136719 17.1612903,37.8993196 L17.1612903,22.5806452 C17.1612903,22.0840473 17.5679183,21.6774194 18.0645161,21.6774194 C19.3108618,21.6774194 20.4398941,22.1832788 21.2619707,22.9960938 C22.0747858,23.8181704 22.5806452,24.9472027 22.5806452,26.1935484 L22.5806452,31.6129032 L23.8993196,32.9315777 C25.4980469,34.530305 26.54593,36.5718246 26.9252142,38.7575605 Z" id="Path" fill="#F0D0B4"></path>
            <path d="M36.1290323,54.1935484 L36.1290323,47.73469 C36.1290323,47.3523185 36.2075352,46.9822958 36.3627772,46.6343246 L39.3525075,39.9073211 C39.610068,39.3264868 39.7419355,38.7086063 39.7419355,38.0717616 L39.7419355,36.1290323 L51.483871,36.1290323 L51.483871,4.51612903 L45.1612903,4.51612903 L45.1612903,0 L35.2258065,0 C32.0834804,0 29.3530746,1.79189771 28,4.40675403 C26.6469254,1.79189771 23.9165196,0 20.7741935,0 L10.8387097,0 L10.8387097,4.51612903 L4.51612903,4.51612903 L4.51612903,36.1290323 L16.2580645,36.1290323 L16.2580645,37.9028478 C16.2580645,38.6689138 16.4547632,39.4266003 16.8261089,40.0960812 L20.4337198,46.5884577 C20.655998,46.9884703 20.7741935,47.4436114 20.7741935,47.9036038 L20.7741935,54.1935484 L6.41780536e-15,54.1935484 L6.41780536e-15,56 L56,56 L56,54.1935484 L36.1290323,54.1935484 Z M49.6774194,6.32258065 L49.6774194,34.3225806 L30.7096774,34.3225806 L30.7096774,35.2258065 C30.7096774,36.7195691 29.4937626,37.9354839 28,37.9354839 C27.8870968,37.9354839 27.7777218,37.9076991 27.6657005,37.8931452 C27.1880671,35.8869078 26.1935484,34.0416457 24.7412425,32.516129 L45.1612903,32.516129 L45.1612903,6.32258065 L49.6774194,6.32258065 Z M12.6451613,1.80645161 L20.7741935,1.80645161 C24.2596396,1.80645161 27.0967742,4.64270416 27.0967742,8.12903226 L27.0967742,15.3548387 L28.9032258,15.3548387 L28.9032258,8.12903226 C28.9032258,4.64270416 31.7403604,1.80645161 35.2258065,1.80645161 L43.3548387,1.80645161 L43.3548387,30.7096774 L28.9032258,30.7096774 L28.9032258,17.1612903 L27.0967742,17.1612903 L27.0967742,30.7096774 L23.483871,30.7096774 L23.483871,26.1935484 C23.483871,23.2047001 21.0533644,20.7741935 18.0645161,20.7741935 C17.0682333,20.7741935 16.2580645,21.5843624 16.2580645,22.5806452 L16.2580645,30.7096774 L12.6451613,30.7096774 L12.6451613,1.80645161 Z M6.32258065,34.3225806 L6.32258065,6.32258065 L10.8387097,6.32258065 L10.8387097,32.516129 L16.2580645,32.516129 L16.2580645,34.3225806 L6.32258065,34.3225806 Z M18.4049899,39.2188761 C18.1827117,38.8179813 18.0645161,38.3628402 18.0645161,37.9028478 L18.0645161,22.5806452 C20.0570817,22.5806452 21.6774194,24.2009828 21.6774194,26.1935484 L21.6774194,31.9868952 L23.265121,33.5745968 C25.1540449,35.4635207 26.1935484,37.9742944 26.1935484,40.6451613 L28,40.6451613 C28,40.3408519 27.9783896,40.0400706 27.9558972,39.7392893 C27.9708922,39.7392893 27.9854461,39.7419355 28,39.7419355 C30.1813255,39.7419355 32.0058594,38.187311 32.4248362,36.1290323 L37.9354839,36.1290323 L37.9354839,38.0717616 C37.9354839,38.4541331 37.8569809,38.8241558 37.701739,39.172127 L34.7120086,45.8991305 C34.5594128,46.2422505 34.4654738,46.6021296 34.4019657,46.9677419 L22.4739164,46.9677419 C22.3808594,46.5298009 22.2309098,46.1042086 22.0126008,45.7103704 L18.4049899,39.2188761 Z M22.5806452,52.3870968 L30.7096774,52.3870968 L30.7096774,50.5806452 L22.5806452,50.5806452 L22.5806452,48.7741935 L34.3225806,48.7741935 L34.3225806,50.5806452 L32.516129,50.5806452 L32.516129,52.3870968 L34.3225806,52.3870968 L34.3225806,54.1935484 L22.5806452,54.1935484 L22.5806452,52.3870968 Z" id="Shape" fill="#000000"></path>
            <polygon id="Path" fill="#000000" points="35.2258065 23.483871 37.0322581 23.483871 37.0322581 25.2903226 35.2258065 25.2903226"></polygon>
            <polygon id="Path" fill="#000000" points="38.8387097 23.483871 40.6451613 23.483871 40.6451613 25.2903226 38.8387097 25.2903226"></polygon>
            <polygon id="Path" fill="#000000" points="31.6129032 23.483871 33.4193548 23.483871 33.4193548 25.2903226 31.6129032 25.2903226"></polygon>
            <polygon id="Path" fill="#000000" points="30.7096774 27.0967742 41.5483871 27.0967742 41.5483871 28.9032258 30.7096774 28.9032258"></polygon>
            <polygon id="Path" fill="#000000" points="30.7096774 19.8709677 41.5483871 19.8709677 41.5483871 21.6774194 30.7096774 21.6774194"></polygon>
            <polygon id="Path" fill="#000000" points="30.7096774 13.5483871 41.5483871 13.5483871 41.5483871 15.3548387 30.7096774 15.3548387"></polygon>
            <polygon id="Path" fill="#000000" points="30.7096774 9.93548387 41.5483871 9.93548387 41.5483871 11.7419355 30.7096774 11.7419355"></polygon>
            <polygon id="Path" fill="#000000" points="30.7096774 6.32258065 41.5483871 6.32258065 41.5483871 8.12903226 30.7096774 8.12903226"></polygon>
            <polygon id="Path" fill="#000000" points="18.9677419 9.93548387 20.7741935 9.93548387 20.7741935 11.7419355 18.9677419 11.7419355"></polygon>
            <polygon id="Path" fill="#000000" points="22.5806452 9.93548387 24.3870968 9.93548387 24.3870968 11.7419355 22.5806452 11.7419355"></polygon>
            <polygon id="Path" fill="#000000" points="15.3548387 9.93548387 17.1612903 9.93548387 17.1612903 11.7419355 15.3548387 11.7419355"></polygon>
            <polygon id="Path" fill="#000000" points="14.4516129 6.32258065 25.2903226 6.32258065 25.2903226 8.12903226 14.4516129 8.12903226"></polygon>
            <polygon id="Path" fill="#000000" points="14.4516129 13.5483871 25.2903226 13.5483871 25.2903226 15.3548387 14.4516129 15.3548387"></polygon>
            <polygon id="Path" fill="#000000" points="14.4516129 17.1612903 25.2903226 17.1612903 25.2903226 18.9677419 14.4516129 18.9677419"></polygon>
        </g>
    </g>
</svg>