<?xml version="1.0" encoding="UTF-8"?>
<svg width="56px" height="56px" viewBox="0 0 56 56" version="1.1" xmlns="http://www.w3.org/2000/svg" xmlns:xlink="http://www.w3.org/1999/xlink">
    <!-- Generator: Sketch 61.2 (89653) - https://sketch.com -->
    <title>icone-faq</title>
    <desc>Created with Sketch.</desc>
    <g id="Page-1" stroke="none" stroke-width="1" fill="none" fill-rule="evenodd">
        <g id="icone-faq" fill-rule="nonzero">
            <path d="M31.28125,20.125 L7.65625,20.125 C4.03189062,20.125 1.09375,23.0631406 1.09375,26.6875 L1.09375,43.53125 C1.09375,47.1556094 4.03189062,50.09375 7.65625,50.09375 L14.7633281,50.09375 L14.6647812,50.1022812 L19.46875,54.90625 L19.4721406,50.09375 L31.28125,50.09375 C34.9056094,50.09375 37.84375,47.1556094 37.84375,43.53125 L37.84375,26.6875 C37.84375,23.0631406 34.9056094,20.125 31.28125,20.125 Z" id="Path" fill="#C7EAFF"></path>
            <path d="M19.4689687,56 C19.1842656,56 18.9045938,55.888875 18.6953594,55.6796406 L14.2032187,51.1875 L7.65625,51.1875 C3.43459375,51.1875 0,47.7529063 0,43.53125 L0,26.6875 C0,22.4658437 3.43459375,19.03125 7.65625,19.03125 L18.703125,19.03125 C19.3070937,19.03125 19.796875,19.5209219 19.796875,20.125 C19.796875,20.7290781 19.3070937,21.21875 18.703125,21.21875 L7.65625,21.21875 C4.64078125,21.21875 2.1875,23.6720312 2.1875,26.6875 L2.1875,43.53125 C2.1875,46.5467187 4.64078125,49 7.65625,49 L14.7633281,49 C15.2106719,49 15.5974219,49.2691719 15.7664062,49.657125 L18.3769687,52.2675781 L18.3785,50.0929844 C18.3789375,49.4892344 18.8683906,49 19.47225,49 L31.28125,49 C34.2967187,49 36.75,46.5467187 36.75,43.53125 L36.75,35.984375 C36.75,35.3802969 37.2397813,34.890625 37.84375,34.890625 C38.4477187,34.890625 38.9375,35.3802969 38.9375,35.984375 L38.9375,43.53125 C38.9375,47.7529063 35.5029063,51.1875 31.28125,51.1875 L20.565125,51.1875 L20.5625,54.9070156 C20.5621719,55.3492188 20.295625,55.7477813 19.8868906,55.916875 C19.7518125,55.9727656 19.6097344,56 19.4689687,56 Z" id="Path" fill="#000000"></path>
            <path d="M40.1028906,1.09375 L37.3347187,1.09375 C29.1590469,1.09375 22.53125,7.7214375 22.53125,15.8972188 L22.53125,15.8972188 C22.53125,24.0728906 29.1589375,30.7006875 37.3347188,30.7006875 L40.1028906,30.7006875 C41.6181719,30.7006875 43.0800781,30.4725313 44.4565625,30.0495781 L49,34.5903906 L49,27.7289687 C52.5868437,25.0275156 54.90625,20.7333438 54.90625,15.8971094 L54.90625,15.8971094 C54.90625,7.7214375 48.2785625,1.09375 40.1028906,1.09375 Z" id="Path" fill="#FFBC53"></path>
            <path d="M49.0002188,35.6841406 C48.715625,35.6841406 48.4360625,35.5730156 48.2268281,35.364 L44.137625,31.2770938 C42.825125,31.6205312 41.4709531,31.7943281 40.1027812,31.7943281 L37.3346094,31.7943281 C28.5689687,31.7943281 21.4375,24.6629688 21.4375,15.8972188 C21.4375,7.13146875 28.5689687,0 37.3347188,0 L40.1028906,0 C48.8685313,0 56,7.13146875 56,15.8972188 C56,18.4364688 55.4188906,20.8633906 54.2725313,23.1106094 C53.2632188,25.0892031 51.8250469,26.8603125 50.09375,28.2623906 L50.09375,34.5903906 C50.09375,35.0327031 49.8273125,35.4314844 49.4186875,35.6007969 C49.2833906,35.6569063 49.1412031,35.6841406 49.0002188,35.6841406 Z M44.4564531,28.9557187 C44.7421406,28.9557187 45.0214844,29.0678281 45.2297344,29.2758594 L47.90625,31.9509531 L47.90625,27.7290781 C47.90625,27.3855312 48.0676875,27.062 48.3418906,26.8553906 C51.8185937,24.2369531 53.8125,20.2427969 53.8125,15.8972188 C53.8125,8.33765625 47.6624531,2.1875 40.1028906,2.1875 L37.3347187,2.1875 C29.7751563,2.1875 23.625,8.33765625 23.625,15.8972188 C23.625,23.4567812 29.7750469,29.6069375 37.3347188,29.6069375 L40.1028906,29.6069375 C41.47675,29.6069375 42.8334375,29.4041562 44.1353281,29.0040625 C44.2409844,28.9715781 44.3492656,28.9557187 44.4564531,28.9557187 Z" id="Shape" fill="#000000"></path>
            <path d="M39.025,20.4284063 C38.4210313,20.4284063 37.93125,19.9387344 37.93125,19.3346563 L37.93125,16.7069219 C37.93125,15.72725 38.6017188,14.8929375 39.5618125,14.678125 C40.7467813,14.413 41.5459844,13.3365313 41.4619844,12.1184219 C41.3788594,10.9123437 40.406625,9.94010938 39.2004375,9.85698437 C38.5124688,9.80951562 37.858625,10.040625 37.3583438,10.5075469 C36.857625,10.9749062 36.5817812,11.6093906 36.5817812,12.2939687 C36.5817812,12.8980469 36.092,13.3877187 35.4880312,13.3877187 C34.8840625,13.3877187 34.3942812,12.8980469 34.3942812,12.2939687 C34.3942812,11.0152656 34.9305469,9.78129687 35.8657031,8.908375 C36.813875,8.02320312 38.0526562,7.585375 39.3507187,7.67451562 C41.6405938,7.83234375 43.4864063,9.67815625 43.6442344,11.9679219 C43.8011875,14.2452187 42.3225469,16.261875 40.1186406,16.7943125 L40.1186406,19.3346562 C40.11875,19.9387344 39.6290781,20.4284063 39.025,20.4284063 Z" id="Path" fill="#000000"></path>
            <path d="M39.025,24.7548438 C38.7373438,24.7548438 38.4551563,24.6389063 38.2517188,24.4354688 C38.0483906,24.2320313 37.93125,23.9498438 37.93125,23.6610938 C37.93125,23.3734375 38.0482813,23.09125 38.2517188,22.8878125 C38.4551563,22.684375 38.7373438,22.5673438 39.025,22.5673438 C39.3126563,22.5673438 39.5948438,22.684375 39.7982813,22.8878125 C40.0016094,23.09125 40.11875,23.3734375 40.11875,23.6610938 C40.11875,23.9498437 40.0017188,24.2309375 39.7982813,24.4354688 C39.5948438,24.6389063 39.3126563,24.7548438 39.025,24.7548438 Z" id="Path" fill="#000000"></path>
            <path d="M30.078125,36.09375 L7,36.09375 C6.39603125,36.09375 5.90625,35.6040781 5.90625,35 C5.90625,34.3959219 6.39603125,33.90625 7,33.90625 L30.078125,33.90625 C30.6820938,33.90625 31.171875,34.3959219 31.171875,35 C31.171875,35.6040781 30.6822031,36.09375 30.078125,36.09375 Z" id="Path" fill="#000000"></path>
            <path d="M30.078125,42.21875 C29.7904688,42.21875 29.5082813,42.1017188 29.3048438,41.8982812 C29.1014063,41.6948437 28.984375,41.4126562 28.984375,41.125 C28.984375,40.8373438 29.1012969,40.5551563 29.3048438,40.3517188 C29.5082813,40.1482812 29.7904688,40.03125 30.078125,40.03125 C30.3657813,40.03125 30.6479688,40.1482812 30.8512969,40.3517188 C31.0547344,40.5551563 31.171875,40.8373438 31.171875,41.125 C31.171875,41.41375 31.0548438,41.6948437 30.8512969,41.8982812 C30.6479688,42.1017188 30.3657813,42.21875 30.078125,42.21875 Z" id="Path" fill="#000000"></path>
            <path d="M25.7760781,42.21875 L7,42.21875 C6.39603125,42.21875 5.90625,41.7290781 5.90625,41.125 C5.90625,40.5209219 6.39603125,40.03125 7,40.03125 L25.7760781,40.03125 C26.3800469,40.03125 26.8698281,40.5209219 26.8698281,41.125 C26.8698281,41.7290781 26.3801563,42.21875 25.7760781,42.21875 Z" id="Path" fill="#000000"></path>
            <path d="M22.96875,29.96875 L7,29.96875 C6.39603125,29.96875 5.90625,29.4790781 5.90625,28.875 C5.90625,28.2709219 6.39603125,27.78125 7,27.78125 L22.96875,27.78125 C23.5727187,27.78125 24.0625,28.2709219 24.0625,28.875 C24.0625,29.4790781 23.5728281,29.96875 22.96875,29.96875 Z" id="Path" fill="#000000"></path>
        </g>
    </g>
</svg>