<?xml version="1.0" encoding="UTF-8"?>
<svg width="56px" height="56px" viewBox="0 0 56 56" version="1.1" xmlns="http://www.w3.org/2000/svg" xmlns:xlink="http://www.w3.org/1999/xlink">
    <!-- Generator: Sketch 61.2 (89653) - https://sketch.com -->
    <title>icone-primeiros-passos</title>
    <desc>Created with Sketch.</desc>
    <g id="Page-1" stroke="none" stroke-width="1" fill="none" fill-rule="evenodd">
        <g id="icone-primeiros-passos" fill-rule="nonzero">
            <g id="Group" transform="translate(0.000000, 0.903226)">
                <path d="M51.3303226,48.7741935 C48.9909677,48.7741935 48.9909677,46.9677419 46.6516129,46.9677419 C45.4593548,46.9677419 44.8812903,47.4374194 44.2851613,47.8980645 C43.7070968,48.3406452 43.1290323,48.7741935 41.9819355,48.7741935 C39.6516129,48.7741935 39.6516129,46.9677419 37.3212903,46.9677419 C34.9819355,46.9677419 34.9819355,48.7741935 32.6516129,48.7741935 C30.3212903,48.7741935 30.3212903,46.9677419 27.9819355,46.9677419 C25.6516129,46.9677419 25.6516129,48.7741935 23.3212903,48.7741935 C20.9819355,48.7741935 20.9819355,46.9677419 18.6516129,46.9677419 C16.3212903,46.9677419 16.3212903,48.7741935 13.9909677,48.7741935 C12.8619355,48.7741935 12.283871,48.3496774 11.7148387,47.9070968 C11.1096774,47.4464516 10.5316129,46.9677419 9.32129032,46.9677419 C8.15612903,46.9677419 7.57806452,47.4193548 6.99096774,47.8709677 L4.66064516,48.7741935 C2.33032258,48.7741935 2.33032258,46.9677419 0,46.9677419 L0,55.0967742 L56,55.0967742 L56,46.9677419 C53.6606452,46.9677419 53.6606452,48.7741935 51.3303226,48.7741935 Z" id="Path" fill="#69D6F4"></path>
                <path d="M44.2580645,47.8709677 L44.2851613,47.8980645 C43.7070968,48.3406452 43.1290323,48.7741935 41.9819355,48.7741935 C39.6516129,48.7741935 39.6516129,46.9677419 37.3212903,46.9677419 C34.9819355,46.9677419 34.9819355,48.7741935 32.6516129,48.7741935 C30.3212903,48.7741935 30.3212903,46.9677419 27.9819355,46.9677419 C25.6516129,46.9677419 25.6516129,48.7741935 23.3212903,48.7741935 C20.9819355,48.7741935 20.9819355,46.9677419 18.6516129,46.9677419 C16.3212903,46.9677419 16.3212903,48.7741935 13.9909677,48.7741935 C12.8619355,48.7741935 12.283871,48.3496774 11.7148387,47.9070968 L11.7419355,47.8709677 L11.7419355,44.2580645 C11.7419355,43.2645161 12.5548387,42.4516129 13.5483871,42.4516129 L15.3548387,42.4516129 L22.5806452,42.4516129 L40.6451613,42.4516129 L42.4516129,42.4516129 C43.4451613,42.4516129 44.2580645,43.2645161 44.2580645,44.2580645 L44.2580645,47.8709677 Z" id="Path" fill="#838F9B"></path>
                <path d="M40.6451613,42.4516129 L22.5806452,42.4516129 L15.3548387,42.4516129 C15.3548387,42.4516129 17.7303226,35.316129 26.2025806,34.4129032 C26.7716129,34.3587097 27.3767742,34.3225806 28,34.3225806 C28.6232258,34.3225806 29.2283871,34.3587097 29.7974194,34.4129032 C38.2696774,35.316129 40.6451613,42.4516129 40.6451613,42.4516129 Z" id="Path" fill="#FCD770"></path>
                <path d="M29.8064516,34.3225806 L29.7974194,34.4129032 C29.2283871,34.3587097 28.6232258,34.3225806 28,34.3225806 C27.3767742,34.3225806 26.7716129,34.3587097 26.2025806,34.4129032 L26.1935484,34.3225806 L26.1935484,1.80645161 C26.1935484,0.812903226 27.0064516,0 28,0 C28.4967742,0 28.9483871,0.198709677 29.2735484,0.532903226 C29.6077419,0.858064516 29.8064516,1.30967742 29.8064516,1.80645161 L29.8064516,13.5483871 L29.8064516,19.8709677 L29.8064516,34.3225806 Z" id="Path" fill="#CF9E76"></path>
                <polygon id="Path" fill="#FF826E" points="50.5806452 1.80645161 45.1612903 10.8387097 50.5806452 19.8709677 29.8064516 19.8709677 29.8064516 13.5483871 29.8064516 1.80645161"></polygon>
            </g>
            <g id="Group" fill="#000000">
                <path d="M51.3276129,54.1935484 C50.4677419,54.1935484 50.0793548,53.8936774 49.5428387,53.4790968 C49.1797419,53.1972903 48.7669677,52.8784516 48.1979355,52.6580645 L47.5430968,54.3416774 C47.8682581,54.468129 48.132,54.6722581 48.4372903,54.908 C49.0677419,55.3948387 49.8508387,56 51.3276129,56 C52.8043871,56 53.5865806,55.3948387 54.2152258,54.908 C54.7526452,54.4934194 55.140129,54.1935484 56,54.1935484 L56,52.3870968 C54.5232258,52.3870968 53.740129,52.9922581 53.1114839,53.4790968 C52.5740645,53.8936774 52.1865806,54.1935484 51.3276129,54.1935484 Z" id="Path"></path>
                <path d="M43.7676129,53.4790968 C43.2310968,53.8936774 42.8445161,54.1935484 41.9855484,54.1935484 C41.1283871,54.1935484 40.7409032,53.8936774 40.2052903,53.4790968 C39.5766452,52.9922581 38.7953548,52.3870968 37.3194839,52.3870968 C35.8436129,52.3870968 35.0614194,52.9922581 34.4327742,53.4790968 C33.8971613,53.8936774 33.5105806,54.1935484 32.6516129,54.1935484 C31.7944516,54.1935484 31.4069677,53.8936774 30.8713548,53.4790968 C30.2427097,52.9922581 29.4614194,52.3870968 27.9855484,52.3870968 C26.5096774,52.3870968 25.7274839,52.9922581 25.0988387,53.4790968 C24.5632258,53.8936774 24.1766452,54.1935484 23.3185806,54.1935484 C22.4605161,54.1935484 22.0739355,53.8936774 21.5383226,53.4790968 C20.9096774,52.9922581 20.1283871,52.3870968 18.6525161,52.3870968 C17.1766452,52.3870968 16.3944516,52.9922581 15.7667097,53.4790968 C15.2310968,53.8936774 14.8454194,54.1935484 13.9873548,54.1935484 C13.1310968,54.1935484 12.7454194,53.8936774 12.2098065,53.48 C11.5820645,52.9931613 10.8007742,52.3870968 9.32580645,52.3870968 C7.84993548,52.3870968 7.06774194,52.9922581 6.44,53.4790968 C5.9043871,53.8936774 5.51780645,54.1935484 4.66064516,54.1935484 C3.8043871,54.1935484 3.41780645,53.8936774 2.88309677,53.4790968 C2.25535484,52.9931613 1.47406452,52.3870968 0,52.3870968 L0,54.1935484 C0.856258065,54.1935484 1.24283871,54.4934194 1.77754839,54.908 C2.40529032,55.3939355 3.18658065,56 4.66064516,56 C6.1356129,56 6.91780645,55.3948387 7.54554839,54.908 C8.08116129,54.4934194 8.46864516,54.1935484 9.32580645,54.1935484 C10.1820645,54.1935484 10.5686452,54.4934194 11.1042581,54.908 C11.732,55.3948387 12.5132903,56 13.9873548,56 C15.4623226,56 16.2445161,55.3948387 16.8722581,54.908 C17.407871,54.4934194 17.7953548,54.1935484 18.6525161,54.1935484 C19.5096774,54.1935484 19.8971613,54.4934194 20.4327742,54.908 C21.0614194,55.3948387 21.8436129,56 23.3185806,56 C24.7935484,56 25.5757419,55.3948387 26.2043871,54.908 C26.74,54.4934194 27.1274839,54.1935484 27.9855484,54.1935484 C28.8427097,54.1935484 29.2301935,54.4934194 29.7658065,54.908 C30.3944516,55.3948387 31.1766452,56 32.6516129,56 C34.1265806,56 34.9096774,55.3948387 35.5383226,54.908 C36.0739355,54.4934194 36.4614194,54.1935484 37.3194839,54.1935484 C38.1766452,54.1935484 38.564129,54.4934194 39.0997419,54.908 C39.7283871,55.3948387 40.5105806,56 41.9855484,56 C43.4605161,56 44.2436129,55.3948387 44.8722581,54.908 C45.3021935,54.5756129 45.6409032,54.3136774 46.2036129,54.2260645 L45.9245161,52.4403871 C44.903871,52.6002581 44.2734194,53.0870968 43.7676129,53.4790968 Z" id="Path"></path>
                <path d="M53.1114839,48.0597419 C52.5740645,48.4743226 52.1865806,48.7741935 51.3276129,48.7741935 C50.4677419,48.7741935 50.0802581,48.4743226 49.5428387,48.0597419 C48.9141935,47.5729032 48.1310968,46.9677419 46.6543226,46.9677419 C46.051871,46.9677419 45.5695484,47.0716129 45.1612903,47.2233548 L45.1612903,45.1612903 C45.1612903,43.6673548 43.9455484,42.4516129 42.4516129,42.4516129 L41.2503226,42.4516129 C40.8926452,41.6468387 40.1176774,40.1655484 38.7050323,38.6698065 C37.1650323,37.0385806 34.6034839,35.1526452 30.7096774,34.5339355 L30.7096774,21.6774194 L52.1766452,21.6774194 L46.2144516,11.7419355 L52.1766452,1.80645161 L30.5434839,1.80645161 C30.1695484,0.757806452 29.176,0 28,0 C26.5060645,0 25.2903226,1.21574194 25.2903226,2.70967742 L25.2903226,34.5339355 C21.3965161,35.1535484 18.8349677,37.0394839 17.2949677,38.6698065 C15.8823226,40.1655484 15.1073548,41.6459355 14.7496774,42.4516129 L13.5483871,42.4516129 C12.0544516,42.4516129 10.8387097,43.6673548 10.8387097,45.1612903 L10.8387097,47.2323871 C10.4268387,47.0752258 9.93819355,46.9677419 9.32580645,46.9677419 C7.84993548,46.9677419 7.06774194,47.5729032 6.44,48.0597419 L7.54645161,49.4877419 C8.08116129,49.0740645 8.46774194,48.7741935 9.32580645,48.7741935 C10.1820645,48.7741935 10.5686452,49.0740645 11.1042581,49.4886452 C11.732,49.9754839 12.5132903,50.5806452 13.9873548,50.5806452 C15.4623226,50.5806452 16.2445161,49.9754839 16.8722581,49.4886452 C17.407871,49.0740645 17.7953548,48.7741935 18.6525161,48.7741935 C19.5096774,48.7741935 19.8971613,49.0740645 20.4327742,49.4886452 C21.0614194,49.9754839 21.8436129,50.5806452 23.3185806,50.5806452 C24.7935484,50.5806452 25.5757419,49.9754839 26.2043871,49.4886452 C26.74,49.0740645 27.1274839,48.7741935 27.9855484,48.7741935 C28.8427097,48.7741935 29.2301935,49.0740645 29.7658065,49.4886452 C30.3944516,49.9754839 31.1766452,50.5806452 32.6516129,50.5806452 C34.1265806,50.5806452 34.9096774,49.9754839 35.5383226,49.4886452 C36.0739355,49.0740645 36.4614194,48.7741935 37.3194839,48.7741935 C38.1766452,48.7741935 38.564129,49.0740645 39.0997419,49.4886452 C39.7283871,49.9754839 40.5105806,50.5806452 41.9855484,50.5806452 C43.4605161,50.5806452 44.2436129,49.9754839 44.8722581,49.4886452 C45.407871,49.0740645 45.7953548,48.7741935 46.6543226,48.7741935 C47.5141935,48.7741935 47.9016774,49.0740645 48.4390968,49.4886452 C49.0677419,49.9754839 49.8508387,50.5806452 51.3276129,50.5806452 C52.8043871,50.5806452 53.5865806,49.9754839 54.2152258,49.4886452 C54.7526452,49.0740645 55.140129,48.7741935 56,48.7741935 L56,46.9677419 C54.5232258,46.9677419 53.740129,47.5729032 53.1114839,48.0597419 Z M44.108129,11.7419355 L48.9846452,19.8709677 L30.7096774,19.8709677 L30.7096774,3.61290323 L48.9846452,3.61290323 L44.108129,11.7419355 Z M27.0967742,2.70967742 C27.0967742,2.212 27.5014194,1.80645161 28,1.80645161 C28.4985806,1.80645161 28.9032258,2.212 28.9032258,2.70967742 L28.9032258,21.6774194 L28.9032258,34.3469677 C28.607871,34.3325161 28.308,34.3225806 28,34.3225806 C27.692,34.3225806 27.392129,34.3325161 27.0967742,34.3469677 L27.0967742,2.70967742 Z M40.2061935,48.0597419 C39.5766452,47.5729032 38.7953548,46.9677419 37.3194839,46.9677419 C35.8436129,46.9677419 35.0614194,47.5729032 34.4327742,48.0597419 C33.8971613,48.4743226 33.5105806,48.7741935 32.6516129,48.7741935 C31.7944516,48.7741935 31.4069677,48.4743226 30.8713548,48.0597419 C30.2427097,47.5729032 29.4614194,46.9677419 27.9855484,46.9677419 C26.5096774,46.9677419 25.7274839,47.5729032 25.0988387,48.0597419 C24.5632258,48.4743226 24.1766452,48.7741935 23.3185806,48.7741935 C22.4605161,48.7741935 22.0739355,48.4743226 21.5383226,48.0597419 C20.9096774,47.5729032 20.1283871,46.9677419 18.6525161,46.9677419 C17.1766452,46.9677419 16.3944516,47.5729032 15.7667097,48.0597419 C15.2310968,48.4743226 14.8454194,48.7741935 13.9873548,48.7741935 C13.3740645,48.7741935 13.0037419,48.6170323 12.6451613,48.3767742 L12.6451613,45.1612903 C12.6451613,44.6636129 13.0498065,44.2580645 13.5483871,44.2580645 L20.7741935,44.2580645 L20.7741935,42.4516129 L16.7548387,42.4516129 C17.892,40.3299355 21.0207742,36.1290323 28,36.1290323 C34.9810323,36.1290323 38.1089032,40.3308387 39.2460645,42.4516129 L22.5806452,42.4516129 L22.5806452,44.2580645 L42.4516129,44.2580645 C42.9501935,44.2580645 43.3548387,44.6636129 43.3548387,45.1612903 L43.3548387,48.3632258 C42.9890323,48.6116129 42.6141935,48.7741935 41.9855484,48.7741935 C41.1283871,48.7741935 40.7409032,48.4743226 40.2061935,48.0597419 Z" id="Shape"></path>
                <path d="M4.66064516,50.5806452 L4.66064516,48.7741935 C3.8043871,48.7741935 3.41780645,48.4743226 2.88309677,48.0597419 C2.25535484,47.5738065 1.47406452,46.9677419 0,46.9677419 L0,48.7741935 C0.856258065,48.7741935 1.24283871,49.0740645 1.77754839,49.4886452 C2.40529032,49.9745806 3.18658065,50.5806452 4.66064516,50.5806452 Z" id="Path"></path>
            </g>
        </g>
    </g>
</svg>