<svg xmlns="http://www.w3.org/2000/svg" width="195" height="36" viewBox="0 0 195 36"><path fill-rule="evenodd" d="M135.707779,47.6262117 C134.844365,47.6201676 133.986595,47.7636133 133.172357,48.049699 C132.401251,48.3168464 131.694235,48.7427513 131.097262,49.298805 C130.492227,49.8770202 130.012956,50.5728931 129.688067,51.3445182 C129.315211,52.2543509 129.133821,53.2318772 129.155991,54.2154473 C129.155991,56.4142768 129.784808,58.061485 131.042845,59.1570719 C132.316199,60.2615234 133.957169,60.8494091 135.642479,60.8046831 C136.576837,60.8260387 137.508775,60.7035457 138.406049,60.4428452 C139.114677,60.2232443 139.807585,59.9569027 140.481144,59.645835 C141.118829,60.0709339 141.661788,60.6229583 142.074953,61.2676581 C142.442973,61.905508 142.627184,62.6320042 142.607432,63.367768 C142.607432,64.8159251 141.915331,65.9409264 140.531934,66.741966 C139.148536,67.5434085 137.23387,67.9415107 134.787933,67.9366754 C132.72493,67.9648811 130.67281,67.6312488 128.724687,66.9522993 C127.005115,66.3507137 125.422592,65.4114666 124.070636,64.1893574 C122.773097,62.9966626 121.748851,61.5364174 121.068439,59.910162 C120.341671,58.158996 119.979295,56.278084 120.003884,54.3822634 C119.956319,52.273289 120.346105,50.1780144 121.147847,48.2269914 C121.841561,46.561651 122.905309,45.0756178 124.259281,43.8825201 C125.59068,42.7442219 127.136118,41.8827417 128.804499,41.3484467 C130.558736,40.7766785 132.392383,40.489787 134.237315,40.49715 C136.789667,40.49715 138.757138,40.9584032 140.140938,41.880727 C141.524336,42.8026478 142.216034,43.9901045 142.216034,45.4430967 C142.219662,46.1023024 142.055202,46.7514346 141.737972,47.3292468 C141.440493,47.8844946 141.064815,48.3942104 140.622628,48.8426798 C139.917225,48.5191211 139.191667,48.2435119 138.449582,48.017061 C137.560371,47.7495106 136.63609,47.61775 135.707779,47.6262117 M172.660969,67.0789828 C172.111158,67.2232344 171.552075,67.3300128 170.987752,67.3973034 C170.203747,67.5052906 169.413695,67.5580754 168.622433,67.5568666 C167.919045,67.5629106 167.216463,67.50932 166.521943,67.3973034 C165.953992,67.3130894 165.415064,67.0930856 164.950304,66.7566329 C164.509729,66.4189713 164.169523,65.9688902 163.964754,65.4531303 C163.704763,64.765719 163.581418,64.0335818 163.602782,63.2990268 L163.602782,51.5070632 C163.602782,50.0593091 163.240406,49.0406832 162.51646,48.4515887 C161.75664,47.8556443 160.812205,47.5429648 159.84681,47.5683499 C159.164382,47.5643205 158.484776,47.6533697 157.826131,47.8326769 C157.283575,47.9692726 156.763995,48.1840383 156.283111,48.4697209 L156.283111,67.0789828 C155.7333,67.2232344 155.174217,67.3300128 154.609894,67.3973034 C153.825888,67.5052906 153.035836,67.5580754 152.244978,67.5568666 C151.541187,67.5629106 150.838605,67.50932 150.144085,67.3973034 C149.576134,67.3130894 149.037206,67.0930856 148.572446,66.7566329 C148.131871,66.4193742 147.791665,65.9688902 147.587299,65.4531303 C147.326905,64.765719 147.203963,64.0335818 147.224923,63.2990268 L147.224923,32.4783434 C147.628011,32.4009794 148.211279,32.3030656 148.974324,32.185005 C149.738175,32.0613032 150.510895,32 151.285226,32.0004596 C151.988614,31.9944156 152.691196,32.0480063 153.385717,32.1596199 C153.951652,32.2438338 154.489371,32.4622259 154.953728,32.796664 C155.3939,33.1343255 155.734106,33.5848096 155.939277,34.1001665 C156.198866,34.7879807 156.321808,35.5197151 156.30125,36.25427 L156.30125,41.4606244 C156.988918,41.2160414 157.690291,41.0121551 158.40174,40.8485625 C159.420746,40.6035765 160.465147,40.4822924 161.513175,40.4867247 C165.021247,40.4867247 167.759422,41.3639195 169.727297,43.1187119 C171.695171,44.8735044 172.679108,47.4861506 172.679108,50.9570536 L172.679108,67.0789828 L172.660969,67.0789828 Z M189.303132,61.3945431 C189.972258,61.389305 190.639771,61.3276555 191.29882,61.2099978 C191.864755,61.1386779 192.414164,60.9682353 192.921248,60.7067289 L192.921248,56.4492921 L189.093124,56.7680156 C188.241802,56.8014594 187.407411,57.0190457 186.648396,57.4050597 C186.045377,57.7036363 185.671715,58.3257717 185.692272,58.9982742 C185.676149,59.6723885 185.982899,60.3138649 186.517796,60.7248611 C187.063577,61.1713158 187.991888,61.3945431 189.303132,61.3945431 M188.879487,40.5046554 C190.64219,40.4873291 192.400862,40.6831567 194.116403,41.0877059 C195.562682,41.4185175 196.932777,42.0201031 198.154536,42.8614364 C199.254563,43.6399115 200.141356,44.6819077 200.733492,45.8919287 C201.367146,47.2506337 201.676717,48.7378758 201.638827,50.2364001 L201.638827,62.1371568 C201.672686,62.959955 201.39778,63.7658298 200.867317,64.3960239 C200.337659,64.9927743 199.718114,65.503296 199.031252,65.9094569 C196.727606,67.2899206 193.483958,67.9817641 189.299505,67.9841817 C187.594443,68.0011051 185.89301,67.8226038 184.229064,67.4514984 C182.845264,67.1545336 181.524748,66.6150004 180.328384,65.8586869 C179.277131,65.1829608 178.416538,64.2497577 177.82924,63.1473209 C177.224608,61.9634908 176.923098,60.648706 176.952524,59.3202212 C176.952524,56.875197 177.677276,54.9975086 179.12557,53.6867532 C180.57467,52.3759977 182.824706,51.5616612 185.876887,51.2429377 L192.841437,50.4971005 L192.841437,50.1352627 C192.895853,49.1956127 192.366196,48.3192238 191.508829,47.9303892 C190.605509,47.4887697 189.303132,47.2675571 187.600893,47.2675571 C186.278362,47.2651394 184.959459,47.4069735 183.667563,47.6914472 C182.487322,47.9461037 181.331266,48.3018975 180.212294,48.755605 C179.704807,48.3812761 179.301719,47.8824396 179.042534,47.3074479 C178.728125,46.6712097 178.564472,45.9717104 178.564472,45.2621375 C178.520535,44.4610979 178.759969,43.6701318 179.241659,43.0282524 C179.798726,42.3988642 180.501308,41.9153393 181.288136,41.6199862 C182.465152,41.1948872 183.68812,40.9092046 184.931646,40.7689823 C186.240472,40.5989428 187.558972,40.5102965 188.879487,40.5046554 M216.205692,58.2556606 C216.205692,59.1775814 216.497931,59.8331606 217.082005,60.2215923 C217.831748,60.65475 218.691938,60.8586364 219.556158,60.8082692 C220.107985,60.8062545 220.659006,60.7615284 221.203577,60.674091 C221.709049,60.5951152 222.207266,60.474234 222.692583,60.3122532 C223.017875,60.712773 223.2952,61.1503631 223.51851,61.6157558 C223.767215,62.1569008 223.890963,62.7468011 223.880483,63.3423426 C223.914342,64.6160279 223.354856,65.8333017 222.366485,66.637162 C221.357154,67.486554 219.576312,67.911653 217.024364,67.911653 C213.904867,67.911653 211.503271,67.203289 209.820379,65.7861581 C208.137488,64.3694301 207.292616,62.0670457 207.285361,58.8786018 L207.285361,36.1456784 C207.664263,36.0368853 208.21609,35.922451 208.940439,35.8015698 C209.705499,35.6750475 210.479428,35.613398 211.254565,35.6167343 C212.814515,35.6167343 214.029018,35.8922307 214.898076,36.4426433 C215.767536,36.9926528 216.202065,38.1539185 216.202065,39.9256343 L216.202065,43.3288438 L223.167018,43.3288438 C223.412095,43.7930277 223.616863,44.2773585 223.778905,44.7770009 C223.980448,45.4035685 224.079608,46.0587448 224.072353,46.7175476 C224.072353,47.9581918 223.797044,48.85231 223.246426,49.4003049 C222.655902,49.9664319 221.858192,50.2646056 221.04073,50.2255208 L216.205692,50.2255208 L216.205692,58.2556606 Z M241.195923,49.8563495 C242.685736,49.8563495 243.828893,49.511435 244.6262,48.8208002 C245.422701,48.1305684 245.821355,47.0760812 245.821355,45.6565327 C245.821355,44.3099158 245.404563,43.2731579 244.571783,42.5466617 C243.738601,41.8201655 242.524097,41.4583277 240.928273,41.4607214 C240.360726,41.4607214 239.891129,41.469207 239.519482,41.4861304 C239.135339,41.5054714 238.752809,41.5501974 238.374712,41.6199056 L238.374712,49.8599759 L241.192296,49.8599759 L241.195923,49.8563495 Z M238.432757,66.9195404 C237.828125,67.064195 237.214626,67.1705705 236.596289,67.2378611 C235.776409,67.3438335 234.950078,67.3970213 234.12254,67.3974243 C233.400206,67.4062889 232.678276,67.3442365 231.967633,67.2128789 C231.401698,67.1129504 230.865591,66.8860966 230.399621,66.5500468 C229.95824,66.2095648 229.626096,65.7477984 229.443497,65.2215622 C229.207287,64.5011101 229.09926,63.7451995 229.124655,62.9876771 L229.124655,37.9523692 C229.084749,37.3173398 229.306044,36.6935927 229.736542,36.2253794 C230.210976,35.7841629 230.777717,35.4541572 231.39565,35.2587325 C232.732693,34.8034132 234.114478,34.4915397 235.517223,34.32835 C237.060646,34.1333283 238.615355,34.0350116 240.171275,34.0350116 C245.063147,34.0350116 248.805413,35.0802312 251.39888,37.1702677 C253.991944,39.260707 255.292305,42.0905365 255.299157,45.6601592 C255.322536,47.2670736 255.04239,48.8639146 254.473633,50.3668712 C253.942365,51.7424996 253.106763,52.9799204 252.028907,53.9872639 C250.849875,55.0538392 249.453579,55.8516554 247.936356,56.3259127 C246.087797,56.9061426 244.158215,57.1845723 242.220975,57.1515314 L238.432757,57.1515314 L238.432757,66.9267934 L238.432757,66.9195404 Z M267.305731,67.0789828 C266.755919,67.2232344 266.196836,67.3300128 265.632513,67.3973034 C264.848508,67.5052906 264.058456,67.5580754 263.267194,67.5568666 C262.563807,67.5629106 261.861225,67.50932 261.167107,67.3973034 C260.598753,67.3130894 260.059825,67.0930856 259.594662,66.7566329 C259.154491,66.4193742 258.814284,65.9688902 258.609919,65.4531303 C258.349121,64.765719 258.226583,64.0335818 258.247543,63.2990268 L258.247543,47.3688959 C258.227792,46.6432056 258.38298,45.9227534 258.700211,45.269189 C259.020665,44.6583358 259.46648,44.1220261 260.007827,43.6945095 C260.650349,43.1880171 261.356559,42.7685593 262.108318,42.4454035 C262.980599,42.0581806 263.876663,41.7293837 264.792076,41.4606244 C265.768758,41.1725242 266.762772,40.9496998 267.769281,40.7945689 C268.789094,40.6358115 269.819386,40.555627 270.85129,40.555627 C272.541438,40.555627 273.88896,40.8836181 274.893051,41.540406 C275.897546,42.1967911 276.39415,43.2682017 276.382058,44.7550408 C276.380445,45.2454156 276.308292,45.7333729 276.168018,46.2031979 C276.037014,46.6552937 275.85885,47.0920779 275.635942,47.5067005 C274.891842,47.5067005 274.130409,47.541756 273.350435,47.6118672 C272.570863,47.6815753 271.808624,47.7879508 271.064927,47.9305906 C270.32123,48.0728275 269.621067,48.2235261 268.964437,48.3830893 C268.390036,48.5148499 267.829745,48.7018128 267.29122,48.9403518 L267.29122,67.0789828 L267.305731,67.0789828 Z M287.243579,54.2188321 C287.243579,56.3914706 287.659969,58.0483493 288.493152,59.189871 C289.28401,60.3217222 290.59727,60.9724662 291.977038,60.9168608 C293.351568,60.9748838 294.65475,60.3047989 295.407315,59.1536066 C296.203817,57.9854911 296.60247,56.3382829 296.60247,54.2115792 C296.60247,52.0852784 296.194142,50.4465319 295.378293,49.2953397 C294.562041,48.2086175 293.281834,47.5695587 291.922622,47.5695587 C290.563813,47.5695587 289.28401,48.2086175 288.467756,49.2953397 C287.651907,50.4513672 287.243579,52.0929341 287.243579,54.2188321 M305.852528,54.2188321 C305.885985,56.2226398 305.542957,58.2143595 304.841987,60.0912421 C304.225666,61.7311974 303.25503,63.21441 301.998606,64.4357133 C300.743795,65.6251846 299.247935,66.5313909 297.613012,67.0930856 C295.781784,67.7172357 293.857443,68.0234681 291.922622,67.998486 C289.984173,68.0250798 288.05701,67.7011182 286.233039,67.0427184 C284.596502,66.4455651 283.102658,65.513168 281.847041,64.3055646 C280.598678,63.0778142 279.628849,61.5966162 279.004063,59.9610932 C278.306318,58.1281309 277.963693,56.1795256 277.993522,54.2188321 C277.966515,52.2762707 278.309543,50.3462005 279.004063,48.5313703 C279.628849,46.8962502 280.599081,45.4142464 281.847041,44.1868991 C283.103062,42.9792956 284.596905,42.0468984 286.233039,41.4497451 C288.05701,40.7909424 289.984173,40.4673837 291.922622,40.4939776 C293.864296,40.4681896 295.793474,40.8018218 297.613012,41.4787566 C299.247129,42.0920274 300.739763,43.0316775 301.998606,44.2408927 C303.246566,45.469046 304.215992,46.9506468 304.841987,48.5857668 C305.532477,50.3824648 305.875504,52.2944029 305.852528,54.2188321 M310.212124,43.1415585 C310.736138,43.1415585 311.042082,42.8506377 311.042082,42.3558306 C311.042082,41.8614263 310.736138,41.5850112 310.212124,41.5850112 L309.353547,41.5850112 L309.353547,43.1415585 L310.212124,43.1415585 Z M311.303685,43.8253433 L312.293266,45.3524761 L310.969123,45.3524761 L310.270571,44.0433324 L310.212124,44.0433324 L309.353547,44.0433324 L309.353547,45.3524761 L308.204344,45.3524761 L308.204344,40.697743 L310.212124,40.697743 C311.4492,40.697743 312.147752,41.2795847 312.147752,42.3123132 C312.147752,43.0251095 311.84221,43.5489283 311.303685,43.8253433 L311.303685,43.8253433 Z M313.850393,43.17057 C313.850393,41.1051128 312.205795,39.4031051 310.081523,39.4031051 C307.941934,39.4031051 306.31225,41.1341242 306.31225,43.1999844 C306.31225,45.2654417 307.927422,46.9674493 310.052501,46.9674493 C312.191285,46.9674493 313.850393,45.2364301 313.850393,43.17057 L313.850393,43.17057 Z M315,43.17057 C315,45.861789 312.831791,48.1311326 310.052501,48.1311326 C307.287319,48.1311326 305.148133,45.8908006 305.148133,43.1999844 C305.148133,40.5083624 307.30183,38.2390189 310.081523,38.2390189 C312.846302,38.2390189 315,40.4648452 315,43.17057 L315,43.17057 Z" transform="translate(-120 -32)" /></svg>